{
  "accessors": [
    {
      "bufferView": 2,
      "componentType": 5126,
      "count": 18676,
      "max": [
        0.025140950456261635,
        -4.173407175400712e-10,
        0.04342303052544594
      ],
      "min": [
        -0.025140950456261635,
        -0.050927046686410904,
        -0.04342303052544594
      ],
      "type": "VEC3"
    },
    {
      "bufferView": 2,
      "byteOffset": 224112,
      "componentType": 5126,
      "count": 18676,
      "max": [
        0.9999868869781494,
        0.999857485294342,
        0.9997579455375671
      ],
      "min": [
        -0.9999557733535767,
        -0.9999639391899109,
        -0.9982572793960571
      ],
      "type": "VEC3"
    },
    {
      "bufferView": 1,
      "componentType": 5126,
      "count": 18676,
      "max": [
        0.9919589757919312,
        0.9415879845619202
      ],
      "min": [
        5.855509880348109e-05,
        0.019196659326553345
      ],
      "type": "VEC2"
    },
    {
      "bufferView": 0,
      "componentType": 5125,
      "count": 107547,
      "type": "SCALAR"
    }
  ],
  "asset": {
    "extras": {
      "author": "emm (https://sketchfab.com/edemaistre)",
      "license": "CC-BY-4.0 (http://creativecommons.org/licenses/by/4.0/)",
      "source": "https://sketchfab.com/3d-models/blue-egg-sculpture-14034702a8b54ca4ade8eabf0219d8ec",
      "title": "Blue egg sculpture"
    },
    "generator": "Sketchfab-12.66.0",
    "version": "2.0"
  },
  "bufferViews": [
    {
      "buffer": 0,
      "byteLength": 430188,
      "name": "floatBufferViews",
      "target": 34963
    },
    {
      "buffer": 0,
      "byteLength": 149408,
      "byteOffset": 430188,
      "byteStride": 8,
      "name": "floatBufferViews",
      "target": 34962
    },
    {
      "buffer": 0,
      "byteLength": 448224,
      "byteOffset": 579596,
      "byteStride": 12,
      "name": "floatBufferViews",
      "target": 34962
    }
  ],
  "buffers": [
    {
      "byteLength": 1027820,
      "uri": "scene.bin"
    }
  ],
  "images": [
    {
      "uri": "textures/material_1_baseColor.png"
    }
  ],
  "materials": [
    {
      "doubleSided": true,
      "name": "material_1",
      "pbrMetallicRoughness": {
        "baseColorTexture": {
          "index": 0
        },
        "metallicFactor": 0.0
      }
    }
  ],
  "meshes": [
    {
      "name": "Object_0",
      "primitives": [
        {
          "attributes": {
            "NORMAL": 1,
            "POSITION": 0,
            "TEXCOORD_0": 2
          },
          "indices": 3,
          "material": 0,
          "mode": 4
        }
      ]
    }
  ],
  "nodes": [
    {
      "children": [
        1
      ],
      "matrix": [
        -0.02136053889989853,
        -0.002341157989576681,
        0.9997690916061401,
        0.0,
        0.9938177466392517,
        0.10892441868782043,
        0.02148845419287684,
        0.0,
        -0.10894957184791565,
        0.9940472841262817,
        2.1378394257671335e-16,
        0.0,
        0.025305984541773796,
        0.0027735896874219123,
        0.026010634377598763,
        1.0
      ],
      "name": "Sketchfab_model"
    },
    {
      "children": [
        2
      ],
      "name": "blueegg.obj.cleaner.materialmerger.gles"
    },
    {
      "mesh": 0,
      "name": "Object_2"
    }
  ],
  "samplers": [
    {
      "magFilter": 9729,
      "minFilter": 9987,
      "wrapS": 10497,
      "wrapT": 10497
    }
  ],
  "scene": 0,
  "scenes": [
    {
      "name": "Sketchfab_Scene",
      "nodes": [
        0
      ]
    }
  ],
  "textures": [
    {
      "sampler": 0,
      "source": 0
    }
  ]
}
